<svg width="640" height="441" viewBox="0 0 640 441" fill="none" xmlns="http://www.w3.org/2000/svg">
<path d="M0 200.6C120 200.6 120 40.5996 240 40.5996C360 40.5996 360 360.6 480 360.6C600 360.6 600 200.6 720 200.6" stroke="#1132D4" stroke-opacity="0.5" stroke-width="1.6"/>
<path d="M0 240.6C104 240.6 104 80.5996 224 80.5996C344 80.5996 344 400.6 464 400.6C584 400.6 584 240.6 704 240.6" stroke="#1132D4" stroke-opacity="0.3" stroke-width="2.4"/>
<path d="M0 160.6C136 160.6 136 0.599609 256 0.599609C376 0.599609 376 320.6 496 320.6C616 320.6 616 160.6 736 160.6" stroke="#1B41FD" stroke-opacity="0.56" stroke-width="1.2"/>
<path d="M0 280.6C96 280.6 96 120.6 192 120.6C288 120.6 288 440.6 384 440.6C480 440.6 480 280.6 576 280.6" stroke="#1132D4" stroke-opacity="0.4" stroke-width="0.8"/>
</svg>
